<svg xmlns="http://www.w3.org/2000/svg" width="24" height="24" fill="none"><path fill="#1D4E1A" fill-rule="evenodd" d="M9.751 3.847c-.975.117-.949.065-.949 1.924v1.664l-.936-.377c-2.028-.793-2.34-.598-3.563 2.276-.546 1.274-.559 1.248.807 1.937l1.118.559s-2.575 2.041-2.536 2.002a.782.782 0 0 0-.117 1.04c1.95 2.809 3.81 3.589 5.266 2.224l.364-.338.026.702c.013.39.013 1.014-.013 1.378-.065 1.326 1.352 1.625 5.448 1.157 1.235-.143 1.157-.039 1.066-1.521l-.078-1.313.377.195c1.34.689 1.833.455 3.303-1.483 1.495-1.976 1.443-1.78.637-2.457-.95-.806-2.055-1.664-2.237-1.73.715-.78 2.029-2.248 2.029-2.248a.954.954 0 0 0 .273-.677.928.928 0 0 0-.3-.663c-2.17-1.989-3.406-2.444-4.472-1.625l-.598.455s-.04-2.262-.052-2.405c-.052-.585-2.613-.95-4.863-.676Zm4.109 5.448c.585-.091 1.274-.469 2.002-1.119.767-.689.754-.689 1.495-.078.325.273.65.533.728.585.091.065 0 .221-.247.443-2.405 2.093-3.042 3.029-2.08 3.029.17 0 2.431 1.833 2.431 1.833l-1.508 2.184-.403-.247c-2.574-1.573-3.29-1.326-2.691.937.494 1.872.52 2.17.104 2.17-.17 0-2.263.17-2.263.17l-.078-1.547c-.078-1.678.04-4.889-3.016-2.21-.884.78-1.001.962-1.404.532-.117-.13-1.131-1.365-1.131-1.365s1.534-1.248 1.859-1.482c1.547-1.053 1.34-1.17-.468-2.106-.69-.364-1.287-.69-1.34-.741-.05-.053 1.12-2.289 1.12-2.289l1.235.637c1.742.91 2.73 1.04 2.535-.09-.13-.78-.13-3.641-.13-3.641l2.146-.026s-.247 2.34-.13 3.536c.078.52.169 1.04 1.235.885Z" clip-rule="evenodd"/></svg>