<svg xmlns="http://www.w3.org/2000/svg" width="24" height="24" fill="none"><path fill="#1D4E1A" fill-rule="evenodd" d="M15.916 4.728c-.79.357-1.217 1.053-1.278 2.079-.078 1.374-.391 1.843-.748 1.13-1.295-2.556-5.747-3.278-6.2-1-.052.244-.06.244-.626.244-2.487-.018-3.921 4.878-2.139 7.304.122.165-.052.748-.565 1.887-.287.635-.252.739.252.965.461.209.609-.009 1.53-2.27a1.4 1.4 0 0 0 0-1.06 17.76 17.76 0 0 0-.66-1.435C4.82 11.276 5.256 9.45 6.49 8.354c1.13-1 2.287-.173 1.296.93-1.365 1.514-.07 3.349 1.94 2.749 1.8-.53 1.869-3.044.095-3.522-.94-.252-1.34-1.574-.626-2.052 1.774-1.2 3.982 1.26 3.748 4.182-.122 1.522 1.408.826 1.408-.217 0-.27.07-.417.348-.74.591-.686.87-1.408 1-2.651.122-1.148 1.617-2.105 2.043-1.305.27.505-.156 3.2-.634 3.974-.383.626-1.74 2.165-2.174 2.461-.565.383-.504.713.165.826.33.052.383.035 1-.478 1.54-1.278 2.026-1.904 2.391-3.104.261-.853.644-.661.652.226.01 1.817-1.895 3.939-3.721 4.687-.435.182-.461.382-.087.66.556.41 1.548-.017 2.687-1.156.713-.713.748-.73.67-.443-.427 1.652-1.8 3.017-3.548 3.53-1.157.34-2.235.583-3.044.687-.113.035-.8.009-1.374.617-.843.896.452 1.61.896.896.33-.54.435-.591 1.078-.6.635 0 .67-.009 2.47-.513 1.53-.426 2.434-.87 3.087-1.504 1.373-1.348 1.947-3.296 1.234-4.235-.156-.209-.156-.218.096-.765.513-1.096.391-2.54-.287-3.357-.243-.296-.26-.374-.287-1.087-.035-1.687-1.713-2.948-3.096-2.322ZM9.682 9.041c.721.366.295 2.253-.548 2.461-.296.079-1.609-.6-.583-2.017.47-.652.609-.713 1.13-.444Z" clip-rule="evenodd"/></svg>